<svg id="Capa_1" enable-background="new 0 0 511.978 511.978" height="512" viewBox="0 0 511.978 511.978" width="512" xmlns="http://www.w3.org/2000/svg"><g><path d="m98.027 34.398c-21.855-21.856-52.119-34.395-83.027-34.395h-15v15c0 30.908 12.539 61.172 34.395 83.027l282.367 282.367 31.816-31.816 31.816-31.816z" fill="#e1e6f0"/><path d="m98.027 34.398c-21.855-21.856-52.119-34.395-83.027-34.395h-15l348.578 348.578 31.816-31.816z" fill="#cfd7e6"/><path d="m496.978.003c-30.908 0-61.172 12.539-83.027 34.395l-282.368 282.367 31.816 31.816 31.816 31.816 282.368-282.366c21.855-21.855 34.395-52.119 34.395-83.027v-15h-15z" fill="#f3f5f9"/><path d="m477.583 98.031c21.855-21.855 34.395-52.119 34.395-83.027v-15l-348.578 348.577 31.816 31.816z" fill="#e1e6f0"/><g><path d="m296.286 31.005h84.853v29.997h-84.853z" fill="#ffbe40" transform="matrix(.707 -.707 .707 .707 66.677 252.98)"/></g><g><path d="m158.245 3.577h29.997v84.853h-29.997z" fill="#ffdf40" transform="matrix(.707 -.707 .707 .707 18.213 135.976)"/></g><path d="m255.978.003h-15v91h15 15v-91z" fill="#ffdf40"/><path d="m255.978.003h15v91h-15z" fill="#ffbe40"/><path d="m126.654 385.327-31.824-31.824-81.669 81.684c-17.549 17.549-17.549 46.084 0 63.633s46.097 17.536 63.647-.015l81.654-81.669z" fill="#515866"/><path d="m76.809 498.805 81.654-81.669-31.809-31.809-113.492 113.493c17.548 17.549 46.096 17.536 63.647-.015z" fill="#353d4d"/><path d="m219.005 397.976-52.5-52.5-52.5-52.5-36.211-8.789c12.012 12.026 16.934 29.751 12.832 46.26-6.313 25.4 1.26 52.676 19.746 71.162s45.791 26.001 71.147 19.746c16.582-4.131 34.263.82 46.274 12.832z" fill="#ffdf40"/><path d="m181.52 421.355c16.582-4.131 34.263.82 46.274 12.832l-8.789-36.211-52.5-52.5-56.133 56.133c18.487 18.486 45.792 26.001 71.148 19.746z" fill="#ffbe40"/><path d="m174.005 337.976-75-75-21.211 21.211 75 75 75 75 21.211-21.211z" fill="#ffbe40"/><path d="m185.902 333.048h29.997v106.066h-29.997z" fill="#ff9f40" transform="matrix(.707 -.707 .707 .707 -214.159 255.138)"/><path d="m498.816 435.187-81.669-81.684-31.824 31.824-31.809 31.809 81.654 81.669c17.551 17.551 46.099 17.563 63.647.015 17.55-17.549 17.55-46.084.001-63.633z" fill="#353d4d"/><path d="m498.816 435.187-81.669-81.684-31.824 31.824 113.493 113.493c17.549-17.549 17.549-46.084 0-63.633z" fill="#1e2533"/><path d="m434.184 284.187-36.211 8.789-52.5 52.5-52.5 52.5-8.789 36.211c12.012-12.012 29.692-16.963 46.274-12.832 25.356 6.255 52.661-1.26 71.147-19.746s26.06-45.762 19.746-71.162c-4.101-16.509.821-34.234 12.833-46.26z" fill="#ffdf40"/><path d="m421.352 330.447c-4.102-16.509.82-34.233 12.832-46.26l-36.211 8.789-52.5 52.5 56.133 56.133c18.486-18.487 26.059-45.762 19.746-71.162z" fill="#ffbe40"/><path d="m412.973 262.976-75 75-75 75 21.211 21.211 75-75 75-75z" fill="#ffbe40"/><path d="m333.045 296.083h106.066v29.997h-106.066z" fill="#ff9f40" transform="matrix(.707 -.707 .707 .707 -106.888 364.112)"/></g></svg>